<?xml version="1.0" encoding="UTF-8" standalone="no"?>
<svg
   xmlns:dc="http://purl.org/dc/elements/1.1/"
   xmlns:cc="http://creativecommons.org/ns#"
   xmlns:rdf="http://www.w3.org/1999/02/22-rdf-syntax-ns#"
   xmlns:svg="http://www.w3.org/2000/svg"
   xmlns="http://www.w3.org/2000/svg"
   xmlns:sodipodi="http://sodipodi.sourceforge.net/DTD/sodipodi-0.dtd"
   xmlns:inkscape="http://www.inkscape.org/namespaces/inkscape"
   sodipodi:docname="bristol.svg"
   inkscape:version="1.0 (4035a4fb49, 2020-05-01)"
   id="svg911"
   version="1.1"
   viewBox="0 0 10 9.9999999"
   height="10mm"
   width="10mm">
  <defs
     id="defs905" />
  <sodipodi:namedview
     inkscape:window-maximized="1"
     inkscape:window-y="-8"
     inkscape:window-x="-8"
     inkscape:window-height="1377"
     inkscape:window-width="2560"
     showgrid="false"
     inkscape:document-rotation="0"
     inkscape:current-layer="g928"
     inkscape:document-units="mm"
     inkscape:cy="3.5265705"
     inkscape:cx="8.5402116"
     inkscape:zoom="3.959798"
     inkscape:pageshadow="2"
     inkscape:pageopacity="0.0"
     borderopacity="1.0"
     bordercolor="#666666"
     pagecolor="#ffffff"
     id="base" />
  <metadata
     id="metadata908">
    <rdf:RDF>
      <cc:Work
         rdf:about="">
        <dc:format>image/svg+xml</dc:format>
        <dc:type
           rdf:resource="http://purl.org/dc/dcmitype/StillImage" />
        <dc:title></dc:title>
      </cc:Work>
    </rdf:RDF>
  </metadata>
  <g
     transform="translate(-95.554444,-92.25685)"
     id="layer1"
     inkscape:groupmode="layer"
     inkscape:label="Livello 1">
    <g
       transform="matrix(0.06995959,0,0,0.06995959,95.554444,92.25685)"
       id="g928">
      <g
         transform="translate(8.1848299,7.0747361)"
         id="g1528">
        <path
           id="path868"
           d="M 84.51,57.62 C 84.45,53.19 83,44.16 72.37,39 c 10.74,3.41 15.91,12.49 16.44,19.26 11.28,2.25 21.28,7.55 37.53,1.95 h 0.05 c 0,0 -21.38,0.2 -30.32,-6.27 4.62,0.17 9.93,-0.87 11.68,-3.48 1.85,-2.79 2,-5.66 6.62,-5.81 2.57,-0.08 11.28,0.57 12.2,-12.23 -2.79,4.7 -5.81,6.65 -10.37,5.49 -2.91,-0.74 -8.23,-3 -12,1.57 -3.13,3.75 -6.5,5.69 -11.88,5.11 2.13,-2.91 34.16,-44.5 34.16,-44.5 0,0 -41.03,32.91 -43.3,34.85 -0.44,-6 1.36,-8.22 3.77,-10.86 2,-2.16 5.4,-5.09 2.67,-11.27 -2.21,-5 -1.92,-8 4.09,-12.81 -4.78,0.35 -12.1,3.57 -11.23,12.37 0.52,5.31 -3.24,5.77 -4.62,6.54 -3.57,2 -4,7.72 -4.15,12.2 -0.41,-1.45 -5.6,-23.8 -7.44,-31 V 60.2 h 0.14 a 36.76,36.76 0 0 1 18.1,-2.59"
           class="cls-1"
           inkscape:connector-curvature="0"
           style="fill:#ae1a2d" />
        <path
           id="path894"
           d="m 44.23,32.6 a 21.25,21.25 0 0 1 2.21,-12.31 c -9,6.79 -9.12,12.31 -9.12,12.31 0,0 1.74,-1.33 6.91,0 M 40.05,17.72 c 0,0 -10.92,1.58 -14.05,1.87 -2.16,1.28 -4.65,4.85 -4.65,4.85 0,0 -2.55,0.38 -7.67,1.31 C 10.13,28.06 8,33.47 12.41,37.88 11,37.59 11,37.59 9,37.24 c -4.36,2.79 -2.32,8 6.74,6.16 -2.56,-0.09 -3.83,-1.34 -3.81,-3 0.02,-1.66 3.4,-4 7.61,-2.85 C 15.51,30 20,27 20,27 a 11.18,11.18 0 0 0 2.79,11.39 c 0.46,-0.75 2,-2.88 6.33,-3 4.33,-0.12 7,2 7.09,4.47 0.06,2.15 -2.67,4.42 -6.21,4.42 l -0.06,-5.14 a 4.14,4.14 0 0 0 -1.48,0.87 c 0,0.23 0,4.32 0,4.32 a 7,7 0 0 1 -5.75,-3 C 21.47,41.28 15,40.32 15,40.32 L 15.34,42 A 3.43,3.43 0 0 1 18,44.68 10.93,10.93 0 0 0 21.52,51 c 2.7,-0.32 7.17,-3.72 15.39,-3.6 -7.55,1 -15.21,9.12 -26.25,6 C 28.2,59.37 30,46.07 52,50.25 A 25.46,25.46 0 0 0 43.46,47.52 12.37,12.37 0 0 0 46.27,40 c 0.35,0 0.82,-0.06 1.69,-0.15 0.29,-1.45 0.5,-2.93 0.5,-2.93 h -8.83 c -9.79,-9.9 0.42,-19.23 0.42,-19.23 M 15.54,17.52 a 14.32,14.32 0 0 0 6.33,-1.71 c 0,0 -1.16,2.93 1.45,2.76 a 21.76,21.76 0 0 0 6.56,-1.86 V 13 a 18.88,18.88 0 0 1 -6.16,2.85 c -1.15,0.26 -0.75,-0.75 -0.64,-1.34 0.11,-0.59 0.19,-1.06 -1.86,-0.2 -8.39,3.48 -8.83,1.1 -8.83,0.81 -0.35,0.41 -0.2,2.29 3.14,2.47 M 60,0.07 V 60.2 C 35.81,50.67 25.73,69.15 0,60.2 0,60.48 0,0.07 0,0.07 h 12.26 v 6.49 h 7 V 0.07 h 6.94 v 6.49 h 7 V 0.07 h 7 v 6.49 h 7.58 V 0.07 Z"
           class="cls-1"
           inkscape:connector-curvature="0"
           style="fill:#ae1a2d" />
        <path
           id="path896"
           d="m 83.12,81.87 c 0,0 -0.29,-0.15 0.26,-0.6 0.07,-0.05 0.17,0.07 0.49,0.07 0.32,0 0.65,-0.14 1,-0.57 0.53,-0.65 -0.58,-0.9 -0.94,-0.58 -0.36,0.32 -0.68,0.69 -1,1 0,0 -0.57,0.51 0.22,0.68 m 20.71,30.38 a 34.93,34.93 0 0 1 -4.66,2.63 c -0.74,0.35 -1,0.56 -1.53,1.64 -0.67,1.32 -1.3,3.72 -1.13,3.89 a 5.88,5.88 0 0 0 3.13,-1.83 1.87,1.87 0 0 0 -0.38,-1 c -0.33,-0.53 0.32,-1.1 0.73,-0.77 a 0.8,0.8 0 0 0 1,0.09 c 0.26,-0.22 6,-3.85 6.23,-4.27 a 25.18,25.18 0 0 1 -2.05,-2.31 4.8,4.8 0 0 1 -1.35,1.95 M 81.52,96.32 a 18,18 0 0 1 -3.44,-1.84 3,3 0 0 0 -2.37,1.26 c -0.75,1.95 -2.44,5.13 -2.68,5.58 a 1.48,1.48 0 0 0 -0.25,0.84 c 0,0.32 0.13,1.57 0.1,1.86 a 2.2,2.2 0 0 0 0.13,1 13.3,13.3 0 0 0 0.91,2.79 5.73,5.73 0 0 0 1.54,-3.11 c 0,0 0.45,-0.77 -0.68,-1.12 -0.32,-0.1 -0.28,-0.94 0.07,-1 0.35,-0.06 0.64,-0.25 0.84,-1 0.2,-0.75 1,-3.47 1.22,-4 a 0.55,0.55 0 0 1 0.25,-0.28 2.82,2.82 0 0 1 0.69,-0.21 0.62,0.62 0 0 1 0.37,0.16 c 0.39,0.39 2.4,2 2.4,2 a 6.36,6.36 0 0 0 1.45,-0.32 7.44,7.44 0 0 1 -0.55,-2.56 M 79.06,84.85 c 0,0 -0.85,1 0.11,1.31 a 5.47,5.47 0 0 0 0.26,1.22 c 0.16,0.42 0.44,0.29 0.74,-0.07 0.3,-0.36 0.8,-1 1.15,-1.39 0.35,-0.39 1.46,-0.23 1,0.48 a 1.31,1.31 0 0 1 -0.94,0.68 c -0.31,0.07 -0.4,-0.19 -0.74,0.26 -0.34,0.45 -0.73,0.82 -0.11,0.82 0.33,0 0.95,0.3 1.36,0.24 0.41,-0.06 0.43,-0.31 0.47,-0.66 0.04,-0.35 0,-0.57 0.38,-0.8 a 8.56,8.56 0 0 0 1.52,-1.23 c 0.27,-0.28 0.61,-0.22 1,-0.22 a 3.24,3.24 0 0 0 3,-1.3 5.15,5.15 0 0 0 0.52,-3.81 4.13,4.13 0 0 1 0.78,3.4 c -0.61,2.51 -1.84,2.66 -3.09,2.92 a 15.31,15.31 0 0 0 -2.57,6.1 c -0.3,0.2 -2.83,2.64 -0.72,6.64 -0.54,0.18 -2.15,0.87 -3.1,1.08 -0.64,0.14 -1.18,0.18 -1.43,0.49 -0.25,0.31 -1,1.48 -0.61,2 a 27.18,27.18 0 0 1 2,5 2.17,2.17 0 0 0 0.91,1.7 c 0.44,0.39 0.72,0.37 1.33,0.83 0.61,0.46 1.13,1.29 1.7,1.74 a 2.7,2.7 0 0 0 1.77,0.65 c -0.12,-1.77 -0.49,-3.51 -1,-4.09 -0.51,-0.58 -1.29,0.26 -1.46,0.3 -0.17,0.04 -0.42,-0.12 -0.52,-0.61 -0.1,-0.49 0.35,-0.92 -0.09,-1.57 -0.81,-1.21 -1.58,-2.58 -1.68,-2.77 -0.56,-1.11 0.4,-1.41 0.63,-1.35 0.57,0.13 4,0.59 4.49,0.63 0.49,0.04 0.81,0.13 1,-0.13 a 9.31,9.31 0 0 0 1.55,-2.22 c 0.76,0.57 0.24,1.66 0,2.95 0.22,0.19 5.14,2.67 11.91,0.87 2.82,-0.75 2.5,-0.16 2.77,0.36 a 15.59,15.59 0 0 0 4.75,6 6.06,6.06 0 0 1 1.25,1.65 2.17,2.17 0 0 1 0.12,1.71 c -0.26,0.63 -1.77,3.34 -2,3.72 a 5.22,5.22 0 0 1 -1.69,1.63 c -1.71,0.91 -2.14,1.74 -2.33,2.37 h 4.4 a 1.7,1.7 0 0 0 0,-0.78 0.87,0.87 0 0 1 0.84,-0.94 c 0.22,0 0.61,0.13 1,-0.7 0.66,-1.56 3.21,-5.9 3.43,-6.29 0.22,-0.39 1,-1.44 0.23,-1.9 a 5.6,5.6 0 0 1 -2.64,-3.91 c -0.11,-0.64 0,-1.69 1.39,-3.48 3.08,-3.83 0.78,-11.73 -6.07,-11.59 a 34.86,34.86 0 0 1 -8.58,-0.75 c -0.93,-0.18 -1.08,-0.68 -0.89,-1.25 a 9.72,9.72 0 0 0 0.41,-2.21 6.59,6.59 0 0 0 -2.18,-1.16 c -0.53,-0.19 -0.8,-0.61 -0.26,-0.65 0.54,-0.04 2.57,0.17 2.57,0.17 a 12.11,12.11 0 0 0 -0.22,-2.69 11.75,11.75 0 0 0 -3.14,-0.84 c -0.31,0 -0.57,-0.38 0.2,-0.49 a 23.49,23.49 0 0 1 2.67,0 A 6.71,6.71 0 0 0 95.53,80 12.13,12.13 0 0 0 93.03,79.57 C 92.42,79.5 92.39,79.32 92.8,79.19 A 6.23,6.23 0 0 1 95,78.95 c -0.38,-0.52 -2.9,-5.13 -8.15,-3.74 a 5.25,5.25 0 0 1 1,1.55 c 0.16,0.44 -0.31,0.59 -0.74,0.13 A 5,5 0 0 0 83.59,75 a 4.91,4.91 0 0 1 1.24,2 17.65,17.65 0 0 0 -3.14,3.27 0.79,0.79 0 0 0 0.17,1.15 z m 33.87,-11.67 c -5.36,1.87 -4.57,7.65 -3.12,9.88 1.89,2.9 3.48,3 4.69,6.37 0.94,2.66 -0.74,4.05 -2.4,4.66 a 5,5 0 0 0 6.8,-1.8 c 1.92,-2.57 -0.26,-5.9 1.8,-7.64 a 4.6,4.6 0 0 1 2.73,-0.84 3.43,3.43 0 0 0 -5.36,0.09 c -0.83,-1.92 -3.15,-3.59 -2.31,-6.56 0.55,-1.95 3.63,-2.67 4.79,-1.08 a 2.28,2.28 0 0 1 -1.13,3.46 3.16,3.16 0 0 0 1.86,-4.82 c -1.06,-1.92 -2.84,-2.06 -4.3,-2.06 -2.64,0 -7,3 -4.23,9.54 -1.61,-1.44 -4.22,-6.45 0.17,-9.19 m 13.37,-6.79 v 60.2 c -33.28,8.1 -34.24,-9.59 -60,0 0,0.78 0,-60.21 0,-60.21 23.7,-9.93 32.93,8.89 60,0"
           class="cls-1"
           inkscape:connector-curvature="0"
           style="fill:#ae1a2d" />
        <path
           id="path898"
           d="m 21.84,100.74 c 0,0 -1.05,0.69 0.27,3.58 1.32,2.89 3,5.58 0.11,8.76 1.62,0 5.14,-2.11 1.37,-8.46 -0.87,-1.46 -1.81,-2.48 -1.74,-3.88 m -3.57,1.36 c 0.87,-0.06 1,-1.13 0.83,-1.69 a 0.82,0.82 0 0 0 -1.56,0.1 3.21,3.21 0 0 0 0,1.65 1.3,1.3 0 0 0 1.21,1 c -0.51,-0.45 -0.37,-0.71 -0.44,-1 m 0.84,3.84 c -0.21,2.56 -1.68,2.93 -1.68,2.93 -2.56,-1.18 -3.93,2 -1.78,3 2.72,1.2 4.39,-2.31 4.55,-3 a 17.32,17.32 0 0 0 0.3,-6.14 c -0.18,-2.55 0.46,-2.94 0.87,-3 0.41,-0.06 1.29,-0.1 2.17,2.55 0.88,2.65 2.76,3 2.76,3 a 7.21,7.21 0 0 1 1.07,-8.55 c 1.77,-1.91 5.37,-3 4.7,-5.66 a 2.92,2.92 0 0 1 -1.64,1.24 c -1.08,0.28 -3.18,0.59 -3.18,0.59 0,0 5,-2.38 5.95,-5.1 0,0 1.57,2.62 -0.52,6.47 a 6,6 0 0 1 4.15,0.26 c 5.48,2.43 4.9,10.24 -2,12.09 -9.87,2.65 -6.29,10.29 -0.63,10.75 -0.61,-0.38 -0.75,-2.68 0.25,-4.05 0.49,-0.44 1.38,-1.33 1.94,0.54 a 4.24,4.24 0 0 0 5.23,3.17 3,3 0 0 1 -0.93,-1.89 c 0.17,-1.16 1.61,0 2.14,0.19 3.89,1.11 6,0.14 6.18,-0.44 -0.87,-0.18 -0.72,-0.08 -1.27,-0.22 -0.55,-0.14 -1.51,-0.84 0.36,-1.27 3.43,-0.79 5.32,-4.33 3.06,-7.06 a 5.19,5.19 0 0 0 -5.77,-1.85 c 3.72,0.8 3.91,3.8 2,5.32 -1.65,1.24 -5.76,1.74 -7.17,-1 a 3,3 0 0 0 -1,3 2.63,2.63 0 0 1 0.39,-4.19 c 10.74,-6.92 9,-18.56 -0.08,-23.35 H 39.47 A 15.91,15.91 0 0 0 24.01,83.92 C 29,78.71 37.77,81.75 39,82.38 a 10.57,10.57 0 0 1 -1.55,-1.69 3.88,3.88 0 0 1 -0.67,-2 c -3.5,2 -4.4,-1 -4.4,-1 0,0 -3,2.73 -5,0.51 -1.72,-1.94 1.06,-4.58 1.06,-4.58 -17.7,5.73 -14.34,15.75 -14.34,15.75 0,0 -2.57,2.36 -3.15,8 -0.65,6.46 2.56,11.05 6.59,9.79 A 2.18,2.18 0 0 0 19.1,106 Z M 60,66.39 c 0,0 0,61 0,60.21 -25.79,-9.59 -26.75,8.1 -60,0 0,0 0,-61.16 0,-60.21 27.1,8.89 36.33,-9.93 60,0"
           class="cls-1"
           inkscape:connector-curvature="0"
           style="fill:#ae1a2d" />
      </g>
    </g>
  </g>
</svg>
