<?xml version="1.0" encoding="UTF-8" standalone="no"?>
<svg
   xmlns:dc="http://purl.org/dc/elements/1.1/"
   xmlns:cc="http://creativecommons.org/ns#"
   xmlns:rdf="http://www.w3.org/1999/02/22-rdf-syntax-ns#"
   xmlns:svg="http://www.w3.org/2000/svg"
   xmlns="http://www.w3.org/2000/svg"
   xmlns:sodipodi="http://sodipodi.sourceforge.net/DTD/sodipodi-0.dtd"
   xmlns:inkscape="http://www.inkscape.org/namespaces/inkscape"
   sodipodi:docname="SNS.svg"
   inkscape:version="1.0 (4035a4fb49, 2020-05-01)"
   id="svg8"
   version="1.1"
   viewBox="0 0 160 160"
   height="160mm"
   width="160mm">
  <defs
     id="defs2" />
  <sodipodi:namedview
     inkscape:window-maximized="1"
     inkscape:window-y="-8"
     inkscape:window-x="-8"
     inkscape:window-height="1377"
     inkscape:window-width="2560"
     showgrid="false"
     inkscape:document-rotation="0"
     inkscape:current-layer="layer1"
     inkscape:document-units="mm"
     inkscape:cy="76.758598"
     inkscape:cx="22.706362"
     inkscape:zoom="0.49497475"
     inkscape:pageshadow="2"
     inkscape:pageopacity="0.0"
     borderopacity="1.0"
     bordercolor="#666666"
     pagecolor="#ffffff"
     id="base" />
  <metadata
     id="metadata5">
    <rdf:RDF>
      <cc:Work
         rdf:about="">
        <dc:format>image/svg+xml</dc:format>
        <dc:type
           rdf:resource="http://purl.org/dc/dcmitype/StillImage" />
        <dc:title></dc:title>
      </cc:Work>
    </rdf:RDF>
  </metadata>
  <g
     transform="translate(-59.084335,-141.82758)"
     id="layer1"
     inkscape:groupmode="layer"
     inkscape:label="Livello 1">
    <path
       d="m 138.33039,143.59912 -0.0493,0.046 h -0.11916 l -0.44631,0.53027 -0.22262,0.20908 -0.83685,0.78593 -0.65595,1.38663 -0.65539,1.38663 0.001,0.83197 5.4e-4,0.83198 0.71064,2.2186 0.71011,2.2186 0.156,2.37731 0.14353,2.18935 -0.0975,0.52108 -0.2237,0.6776 -0.32228,0.97606 -0.0395,0.059 -0.80652,0.67869 -0.83522,0.70198 -1.57296,-10e-4 -1.5735,-5.6e-4 -0.92348,-0.56327 -0.44199,-0.26974 -0.56873,-0.47829 -1.13368,-2.39301 -1.22142,-2.57826 -0.94247,-2.61238 -0.94302,-2.61239 -0.44902,-0.0682 -0.16629,-0.18525 -0.13866,0.13866 -0.34991,-0.053 -0.11754,0.30656 h -0.0233 l 0.005,0.0472 -0.0303,0.079 -0.16574,0.43224 0.2914,2.28631 0.29141,2.28577 0.0439,2.63459 0.0417,2.54468 -0.0108,0.11158 -0.34936,0.6191 -0.16683,0.29574 -0.10941,0.10942 -0.21721,0.2172 -0.47395,-0.0677 -0.43385,-0.0617 -0.21071,-0.19716 -0.0905,-0.0845 -2.46505,-4.87324 -2.59451,-5.13052 -0.21612,-0.12349 -0.0249,-0.0515 -0.0482,0.009 -0.0997,-0.0569 -0.0271,-0.0157 -0.12024,-0.14462 -0.0791,0.0303 -0.16195,-0.0932 -0.27516,0.17007 -0.27516,0.17008 -0.0119,3.10367 -10e-4,0.32065 -0.0525,2.17528 -0.0374,1.56373 -0.15871,1.9142 -0.2367,2.85667 -0.009,0.0217 -0.27732,0.27678 -0.28437,0.28437 -0.73018,-0.18308 -0.57794,-0.14517 -0.13812,-0.0932 -0.21287,-0.14353 -1.0351,-1.0351 -0.91539,-0.91539 -0.32661,-0.38891 -0.17496,-0.20799 -1.23171,-1.87574 -1.12501,-1.7127 -0.52811,-1.05188 -0.50753,-1.01181 -0.18849,-0.40948 -0.93381,-2.03229 -0.49128,0.0937 -0.49128,0.0937 -0.0211,0.14733 -0.11753,0.045 v 0.3694 0.0737 l -0.0114,0.0184 0.0114,0.0282 v 0.24916 l 0.004,0.009 -0.0233,0.16304 2.88429,7.08968 2.88429,7.08967 0.32445,0.6061 0.11591,0.21612 0.16142,0.38999 h 0.0466 l 5.5e-4,5.5e-4 0.0791,-5.5e-4 h 0.0818 0.0634 0.0645 0.20745 l 0.0108,-0.003 0.44416,-0.003 1.38663,-0.42411 1.38662,-0.42411 4.02122,-0.80869 4.02122,-0.80869 3.46656,-0.48964 3.21579,-0.45391 0.30115,-0.0352 8.26939,-0.004 8.03161,-0.003 0.61315,0.0477 3.00291,0.44089 3.32791,0.48858 2.35726,0.42194 2.35727,0.42141 3.40752,0.84443 3.40699,0.84444 0.35424,-0.13596 0.3537,-0.13596 3.12153,-7.66381 3.121,-7.66329 -0.0287,-0.15003 0.0498,-0.12242 -0.0954,-0.11482 -0.0173,-0.0894 -0.0921,-0.4772 h -0.36075 l -0.0872,-0.10562 -0.27462,0.10562 h -0.31198 l -0.0764,0.14842 -0.0672,0.026 -0.15762,0.41328 -1.16943,2.28088 -1.39745,2.72397 -0.13271,0.22099 -1.50796,1.96891 -1.27233,1.66178 -0.42195,0.38566 -0.26108,0.23887 -0.52269,0.32282 -0.91105,0.56278 h -0.45933 -0.29141 l -0.24698,-0.24699 -0.0255,-0.0255 -0.18796,-0.4902 -0.29249,-0.76265 -0.18633,-5.54651 -0.0309,-0.92134 -0.072,-4.18805 -0.0704,-0.0585 -0.0125,-0.37861 h -0.44415 l -0.12837,-0.10671 -0.17062,0.10671 h -0.36616 l -2.11461,4.324 -2.1146,4.32401 -1.01452,1.01451 -0.74856,0.74856 -0.29953,0.15491 -0.2145,0.11115 h -0.43061 -0.55032 l -0.0195,-0.0163 -0.143,-0.11862 -0.15328,-0.60989 -0.1002,-0.39975 v -0.74429 -0.22803 l 0.24157,-1.74791 0.32824,-2.37514 0.37861,-2.48077 0.37862,-2.48129 -0.13866,-0.36128 -0.13867,-0.36183 h -0.38403 l -0.11483,-0.11483 -0.10398,0.11483 h -0.45931 l -0.26433,0.62398 -0.26487,0.62398 -1.4018,3.6464 -1.34058,3.48715 -0.14516,0.28328 -0.53841,0.79894 -0.62181,0.92298 -0.93597,0.63047 -0.8829,0.59474 -0.0764,0.0255 -0.0655,0.0105 h -1.38229 -1.37037 l -0.20204,-0.046 -0.62561,-0.28491 -0.57415,-0.26162 -0.13216,-0.1197 -0.0883,-0.0797 -0.3277,-0.63482 -0.37916,-0.73232 -0.0162,-0.0607 0.005,-1.99544 0.006,-2.02469 0.37428,-1.66395 0.37374,-1.66395 0.5032,-1.81941 0.50265,-1.8194 -0.35208,-1.2588 -0.35261,-1.25826 -0.71119,-0.94248 -0.0688,-0.14245 -0.169,-0.17278 -0.0764,-0.10125 -1.02588,-1.35954 -0.37916,-0.0547 -0.0824,-0.084 h -0.49724 -0.007 z m 0.47557,1.75658 0.10293,0.0855 0.21612,0.20258 0.63211,1.10172 0.84606,1.47545 -0.003,0.69331 -0.003,0.69332 -0.70848,2.35727 -0.70847,2.35725 -0.1403,2.91193 -0.0135,0.28544 -0.15708,1.93153 0.0569,0.1495 -0.026,0.54544 0.64619,1.24797 0.64619,1.24796 0.87965,0.44361 0.34341,0.32879 0.44956,0.071 0.80219,0.40461 h 1.55074 1.55075 l 0.83306,-0.41545 0.0628,-0.003 0.11863,-0.0834 0.33799,-0.0639 0.36128,-0.28869 1.10551,-0.55086 0.46366,-0.69061 0.0105,-0.007 0.0185,-0.0352 0.19986,-0.29792 0.69169,-1.03076 0.2692,-0.51565 0.26867,-0.51565 0.15978,1.76037 0.15924,1.76091 0.55357,0.4761 0.31958,0.45662 0.28382,0.0623 0.30116,0.2589 h 0.70523 0.17279 l 0.14299,0.0315 0.0753,-0.0313 h 0.31415 l 0.95548,-0.45283 0.95493,-0.45336 0.92677,-1.14126 0.92731,-1.1418 1.10388,-2.20722 1.10442,-2.20724 0.20529,3.28295 0.20475,3.28295 0.11808,0.41166 0.009,0.21015 0.11483,0.22046 0.2405,0.83901 0.27732,0.2952 0.0595,0.18037 0.14516,0.0753 0.0915,0.17604 0.21937,0.11754 0.42628,0.45336 h 0.42086 l 0.0953,0.0509 0.21233,-0.04 0.0406,0.0212 0.0969,-0.032 h 0.73774 l 0.45498,-0.23833 0.29953,-0.0563 0.2692,-0.24157 0.18741,-0.0986 1.06002,-0.8309 1.06056,-0.83089 -0.46367,1.07897 -0.46311,1.07897 -0.45065,1.18459 -0.40732,1.06867 -0.0882,0.0985 -0.37861,-0.14733 -0.42358,-0.16466 -2.90649,-0.68898 -2.9065,-0.68843 -3.11341,-0.53245 -3.11396,-0.53244 -4.02501,-0.42249 -1.86111,-0.19554 -0.377,-0.0493 h -0.0915 l -1.69537,-0.17822 h -5.14623 -5.14622 l -1.69537,0.17821 h -0.0915 l -0.37698,0.0493 -1.86112,0.19554 -4.02447,0.42249 -3.2472,0.55303 -3.24719,0.55302 -2.77326,0.6684 -2.77271,0.66785 -0.43711,0.17008 -0.36291,0.14137 -0.0867,-0.002 -0.79839,-1.98732 -0.81085,-2.01765 -0.10725,-0.28112 -0.10725,-0.28165 0.6619,0.59527 0.6619,0.59473 0.55248,0.33204 0.003,0.002 0.006,0.003 0.40895,0.24536 0.97064,0.58282 0.35966,5.6e-4 0.002,0.001 h 0.46148 0.0162 l 0.11483,0.0379 0.0791,-0.0379 h 0.25133 0.19554 l 0.44903,-0.17225 0.44848,-0.17224 0.42195,-0.81573 0.42194,-0.81573 0.25675,-3.10257 0.25674,-3.10259 0.008,-0.55465 0.009,-0.55464 1.48358,2.77325 1.48413,2.77325 0.83035,0.90131 0.83035,0.90131 h 0.34828 l 0.0628,0.0585 0.29249,-0.0585 h 0.16303 0.86665 l 0.29736,-0.26541 0.0915,-0.0185 0.3017,-0.27299 0.17008,-0.065 0.0862,-0.16628 0.44578,-0.40408 0.019,-0.0688 0.29791,-0.26595 0.22912,-1.63036 0.008,-0.032 5.6e-4,-0.0335 0.0682,-0.48749 0.30603,-2.18394 0.81519,1.62983 0.40298,0.80543 0.27571,0.59204 0.0407,0.0406 0.0959,0.19175 0.59364,0.66081 0.59365,0.66081 0.42736,0.19716 0.19121,0.19121 0.56656,0.15817 1.03348,0.47719 0.67922,0.003 0.30442,0.085 0.68952,-0.0818 1.54316,0.006 0.47395,-0.24483 0.11537,-0.0135 0.18795,-0.143 0.77727,-0.40189 0.21449,-0.2443 0.10073,-0.053 0.20313,-0.28924 0.46202,-0.35261 0.15871,-0.35804 0.58389,-0.66515 0.32175,-1.18242 0.32227,-1.18242 -0.15111,-2.35727 -0.15112,-2.35727 -0.71065,-2.2186 -0.7101,-2.2186 0.002,-0.69332 0.002,-0.59148 0.0899,-0.29954 0.41491,-0.91159 0.4214,-0.92623 0.19987,-0.21287 0.28112,-0.29953 0.045,-0.0368 z m -7.1487,4.32833 -1.10172,0.14733 -1.10172,0.14787 -0.77836,0.74585 -0.014,0.013 -0.14679,0.0764 -0.0525,0.11484 -0.56548,0.54219 -0.0433,0.17224 -0.002,0.002 v 0.005 l -0.12404,0.49399 -0.16899,0.67381 0.29303,0.61748 v 0.23562 l 0.21286,0.21287 0.38458,0.81085 0.81139,0.38511 0.21233,0.21233 h 0.23508 l 0.58498,0.27733 h 0.73611 0.60556 l 0.29899,0.38023 0.39108,0.88398 0.54922,1.242 0.013,0.0455 0.13921,1.00044 0.14245,1.02372 0.11375,0.36615 0.11375,0.36615 0.26649,-0.0379 0.0114,0.04 0.21018,-0.0412 h 0.04 0.26595 l 0.0558,-0.071 0.20474,-0.04 0.19554,-0.0277 0.59365,-1.19542 0.046,-0.0585 0.0157,-0.0661 0.62127,-1.25175 0.003,-1.34925 0.0287,-0.11971 -0.0282,-0.18741 0.002,-1.04485 0.0212,-0.27353 -0.0205,-0.0542 5.4e-4,-0.22316 -0.43928,-1.22847 -0.43874,-1.229 -0.26758,-0.35045 -0.0227,-0.0607 -0.0747,-0.0677 -0.30712,-0.40244 -0.67219,-0.8818 -0.93001,-0.44091 -0.21234,-0.19175 h -0.19174 z m 14.81145,0.007 -0.99989,0.32986 -0.006,0.002 h -0.0558 l -0.0465,0.0335 -0.89102,0.29411 -0.9468,0.97553 -0.20313,0.20907 -0.11753,0.085 -0.0277,0.0645 -0.59906,0.6164 -0.47882,1.42617 -0.47937,1.42617 0.0282,1.41154 0.0287,1.41155 0.44415,1.06326 0.11862,0.28382 0.0905,0.35965 0.10833,0.11592 0.12674,0.30387 0.31632,0.38132 0.31687,0.38132 0.20583,-0.0298 0.0303,0.0325 0.0894,-0.0299 h 0.16737 0.26595 l 0.0243,-0.0867 0.36129,-0.052 0.19553,-1.15262 0.19554,-1.15264 0.60773,-1.41263 0.53027,-1.23226 0.11809,-0.18036 h 0.64619 0.68627 l 0.58498,-0.27733 h 0.23508 l 0.21232,-0.21233 0.81139,-0.38512 0.38458,-0.81084 0.21287,-0.21287 v -0.23562 l 0.29303,-0.61749 -0.17387,-0.69385 -0.11916,-0.47503 v -0.004 l -0.002,-0.002 -0.053,-0.21233 -0.60014,-0.60014 -0.007,-0.0168 -0.019,-0.009 -0.0704,-0.0704 -0.69711,-0.6971 -0.92134,-0.17279 z m -16.15746,1.71867 h 0.55736 0.25566 0.3602 l 0.78972,0.40841 0.5292,0.27353 0.15654,0.12349 0.17874,0.17062 0.48045,1.02698 0.55518,1.18621 0.17496,1.01831 0.117,0.68085 -0.007,0.11483 -0.005,0.0753 -0.0146,0.20096 -0.17008,0.10507 -0.22967,0.14138 -0.0677,-0.14571 -0.12728,-0.50752 -0.16792,-0.67003 -0.71823,-0.8531 -0.71823,-0.85364 h -0.33257 -0.0997 l -0.0595,-0.0634 -0.25241,0.0634 h -0.29738 -0.29249 -0.7491 l -0.45878,-0.50698 -0.45932,-0.50699 v -0.21558 -0.0639 -0.003 -0.28167 l 0.50753,-0.45877 0.42248,-0.38295 z m 15.64126,0 h 0.56007 0.19174 0.5969 l 0.30008,0.16087 0.31362,0.34665 0.37915,0.41925 0.0244,0.20853 0.052,0.44578 -0.50374,0.45607 -0.50698,0.45878 h -0.68086 -0.21233 -0.89264 l -0.64944,0.7009 -0.10073,0.10832 -0.0482,0.0309 -0.0244,0.0477 -0.4761,0.51402 -0.34179,0.8244 -0.34124,0.82439 h -0.26812 -0.21882 l 5.6e-4,-0.20474 0.0249,-0.24483 0.12187,-0.72906 0.19608,-1.17864 0.51348,-1.01342 0.51403,-1.01398 0.73827,-0.58065 z m -9.9198,18.2244 -4.15988,0.33528 -4.15988,0.33474 -3.18925,0.53732 -3.18924,0.53732 -3.46656,0.85959 -3.46657,0.86015 -0.51294,0.273 -0.51349,0.27353 0.0271,0.13975 -0.0704,0.0439 0.19987,0.61965 0.13162,0.67273 0.32337,1.24795 0.2757,1.06219 v 0.61044 l -0.10725,0.94517 -0.15599,1.36984 -0.71119,1.45379 -0.51674,1.05568 -0.65377,0.72744 -0.31632,0.35153 -0.19392,0.17062 -0.97009,0.85148 -1.44567,0.73556 -1.37796,0.70198 -0.33474,0.0472 -2.36864,0.11645 -2.57339,0.12621 -0.23345,-0.0325 -1.38608,-0.28761 -1.557254,-0.32337 -2.01169,-0.96414 -2.011694,-0.96414 -1.935862,-1.93532 -1.935862,-1.93585 h -0.24645 -0.232369 -0.02383 -0.207994 -0.294659 l -1.585411,1.73327 -1.585954,1.73329 -1.577832,2.38219 -1.577829,2.38218 -0.867726,2.19368 -0.868268,2.19369 -0.418695,1.52529 -0.418697,1.52528 -0.06879,0.53082 -0.007,0.0244 -0.0017,0.0428 -0.244829,1.89254 -0.321738,2.49051 0.181451,2.17581 0.181454,2.17581 0.39378,1.85083 0.393783,1.85081 0.529733,1.5253 0.530276,1.52529 0.788104,1.56482 0.150036,0.377 0.168996,0.25673 0.881266,1.749 1.331922,0.32878 0.888849,0.21882 0.08775,0.0271 0.509153,0.15654 2.447721,1.18296 1.86382,0.90077 0.909434,0.53136 0.01625,0.0135 2.076694,2.07615 1.856236,1.85515 0.625066,0.82331 0.711731,1.3628 0.927847,1.77716 v 1.45866 1.45867 l -0.72852,1.24418 -0.625066,1.06596 -0.362365,0.30495 -0.0043,0.003 -1.182426,0.58932 -0.991222,0.49398 -0.76102,0.20149 -0.120223,0.0249 H 94.25085 93.482789 l -0.138122,0.25837 -0.232369,0.0482 0.0049,0.37699 -0.294118,0.54924 0.174954,11.10059 0.175494,11.1006 0.288158,4.99186 0.287617,4.99186 0.411656,2.52951 0.411654,2.52951 0.704149,2.15685 0.704145,2.15741 0.958723,2.07506 0.958721,2.07506 1.595706,2.38977 1.595703,2.39031 2.63459,2.6465 1.26422,1.27017 0.3109,0.3185 0.0233,0.0173 1.03618,1.04105 2.56905,1.69158 0.71769,0.47232 0.0618,0.046 0.0374,0.0195 1.75224,1.15372 1.78312,0.75776 0.75831,0.32228 0.17062,0.0888 h 0.0379 l 0.81573,0.34666 1.35846,-1.39421 1.35792,-1.39421 1.42562,-0.72256 1.42617,-0.72257 1.73816,-0.41003 1.7387,-0.41003 1.36225,0.002 0.73719,0.0335 1.44025,0.0655 0.96143,0.43602 0.78702,0.3575 0.50915,0.37698 0.43602,0.71553 0.559,0.91701 0.001,1.27613 0.001,1.09576 -0.17766,0.34611 -0.13921,0.27084 -0.5151,0.71118 -0.83198,1.14885 v 0.079 l -0.0195,0.0249 0.0195,0.0195 v 0.13975 0.26324 l 0.34665,0.22425 0.34666,0.22424 1.80262,0.1847 1.80261,0.18471 3.08795,-0.0542 0.24049,0.013 0.59366,0.0439 0.5931,0.0439 3.03976,-0.17929 5.20201,-0.0921 0.9441,-0.21667 0.31795,-0.0732 0.40245,-0.0238 0.091,-0.0899 0.13269,-0.0303 0.1078,-0.17061 0.0834,-0.0205 v -0.0964 l 0.26,-0.2562 -0.0515,-0.0894 0.13162,-0.20907 -0.72418,-1.0676 -0.47395,-0.69819 -0.13108,-0.27841 -0.1197,-0.25403 0.001,-1.11526 0.001,-1.27884 0.5411,-0.88777 0.40895,-0.67003 0.0537,-0.072 0.4577,-0.34125 0.53243,-0.2757 0.91161,-0.47123 1.80478,-0.12459 1.1678,-0.0802 0.69006,-0.0314 1.82158,0.42735 1.87411,0.43983 1.45379,0.72743 1.40126,0.70144 0.26649,0.25187 1.10713,1.16617 1.32162,1.39204 1.22685,-0.46852 1.22684,-0.46853 2.22131,-1.33517 2.22131,-1.33517 1.40179,-1.11525 0.44903,-0.29683 0.34991,-0.33908 1.40342,-1.11634 1.83457,-1.98136 0.32932,-0.35586 0.28221,-0.27299 0.11428,-0.15492 1.10876,-1.19759 1.50796,-2.26681 1.50795,-2.26628 1.0909,-2.32801 1.09088,-2.32801 0.63644,-2.19694 0.007,-0.0184 0.005,-0.0228 0.0417,-0.14353 0.69061,-2.38218 0.30278,-2.19207 0.30225,-2.1926 0.28165,-4.43721 0.28111,-4.43721 0.17334,-11.7067 0.17279,-11.70726 -0.35316,-0.42573 -0.0477,-0.0574 -0.002,-0.0672 -0.0699,-0.019 -0.23451,-0.2828 h -0.74369 -0.17116 l -0.71714,-0.12078 -0.14733,-0.0249 -1.15317,-0.57471 -0.96198,-0.47936 -0.55574,-0.40245 -0.0623,-0.0682 -0.55412,-0.94573 -0.68952,-1.17647 v -1.52598 -1.52584 l 0.88507,-1.77119 0.88505,-1.77066 2.0962,-2.11298 1.62657,-1.63958 0.30766,-0.3082 0.11646,-0.0824 0.37482,-0.2654 1.5762,-0.87368 1.90499,-1.05622 2.24406,-0.74532 2.24406,-0.74531 0.91485,-1.7777 0.91485,-1.77715 0.52702,-1.632 0.28546,-0.88397 0.81193,-2.51545 0.0747,-0.56278 0.071,-0.22965 v -0.30007 l 0.18416,-1.38391 0.32987,-2.47589 -0.17875,-2.54685 -0.17875,-2.5463 -0.1625,-0.64078 v -0.0899 l -0.30006,-1.09306 -0.20096,-0.79297 -0.66407,-2.61725 -0.98526,-2.13194 -0.98526,-2.13248 -0.96739,-1.45325 -0.15816,-0.31741 -0.29033,-0.35641 -1.05568,-1.58487 -1.57621,-1.73869 -0.74368,-0.82006 -0.40028,-0.49183 -0.0921,-0.052 -0.33961,-0.37428 -0.47882,-0.2562 -0.47829,-0.2562 -2.11677,2.06965 -2.11677,2.06911 -1.98894,0.9533 -1.98841,0.95277 -1.54262,0.32012 -1.54262,0.32065 -2.51164,-0.11375 -2.51218,-0.1132 -1.53775,-0.70793 -1.53828,-0.7085 -0.97172,-0.85309 -0.97173,-0.85311 -0.73285,-1.476 -0.73285,-1.47598 -0.14246,-1.01072 0.002,-1.06923 0.003,-1.35034 0.22209,-0.86663 0.44577,-1.73871 -0.24591,-0.29574 0.0276,-0.14191 -0.19229,-0.0563 -0.1717,-0.20747 -3.10961,-0.85689 -3.11016,-0.85689 -2.73534,-0.55844 -2.73481,-0.55898 -3.2277,-0.43007 -3.22715,-0.43061 -4.99186,-0.16358 z m -0.69981,1.6802 0.56819,5.5e-4 4.98482,0.15492 5.40784,0.16791 3.16433,0.43386 3.16433,0.43441 3.07658,0.65161 3.07712,0.6516 2.01169,0.59907 1.83999,0.54815 0.003,0.67273 -0.0347,0.12837 -0.20312,0.75018 0.032,1.80262 0.0315,1.80262 0.19879,0.52378 v 0.0308 l 0.0602,0.12783 0.37103,0.9793 0.63048,1.66233 1.54912,1.53938 1.54966,1.53991 1.30592,0.60773 1.30593,0.60774 1.19,0.27407 1.19001,0.27462 1.89416,0.006 0.37157,0.0498 0.34286,-0.0477 1.86599,0.005 1.92287,-0.50807 1.92231,-0.50806 1.65746,-0.80923 1.65745,-0.80923 1.87899,-1.76687 0.18362,-0.17279 0.53461,-0.4111 0.23454,-0.31253 0.47773,-0.44904 0.45173,-0.41815 0.42142,0.34936 0.1024,0.085 0.80111,0.86935 0.9338,1.17322 1.4121,1.77445 1.21979,2.13573 1.08546,1.90065 0.24755,0.58715 0.69493,2.16336 0.80868,2.51597 0.32987,2.47589 0.11484,0.86067 0.002,2.44719 10e-4,2.19314 -0.14299,2.04365 -0.55411,2.18015 -0.55411,2.18015 -1.06706,2.23214 -1.06704,2.23269 -1.21818,0.35044 -1.21817,0.35045 -2.04962,0.99935 -0.0444,0.0152 -0.0563,0.0342 -0.48424,0.23616 -2.63459,1.28479 -1.33193,1.3303 -0.69494,0.49236 -1.40016,1.57133 -0.22425,0.25133 -1.3785,1.37634 -1.02102,2.04797 -1.02101,2.04799 v 1.73382 0.0347 l -0.0758,0.63969 0.0758,0.27082 v 0.7881 l 0.47882,0.92136 0.1495,0.5346 0.31253,0.35479 0.60503,1.16455 1.0313,0.69494 0.1847,0.20962 0.42032,0.19716 1.02914,0.69331 1.04485,0.28165 0.007,0.003 h 0.005 l 0.0682,0.0185 1.04647,0.28166 0.04,2.59018 -0.13107,8.57162 -0.17009,11.14015 -0.29791,4.99186 -0.2979,4.99186 -0.40678,2.24513 -0.40678,2.24461 -0.58065,1.77661 -0.58011,1.77608 -0.94301,2.04798 -0.94302,2.04745 -1.58325,2.38976 -1.5827,2.38922 -2.36973,2.37027 -2.37026,2.36973 -2.35727,1.55616 -2.35727,1.5567 -1.3032,0.62832 -1.30268,0.62886 -1.28208,-1.18134 -1.28155,-1.18135 -1.73978,-0.8141 -1.73979,-0.8141 -2.05394,-0.43657 -2.05394,-0.43657 -1.85082,0.14733 -1.85136,0.14679 -0.9219,0.46635 -0.92242,0.46637 -0.47233,0.42898 -0.25837,0.12891 -0.17604,0.26596 -0.39486,0.35911 -0.4187,0.81573 -0.026,0.026 -0.014,0.0525 -0.0694,0.13488 -0.0157,0.0303 -0.25023,0.37862 -0.0162,0.14191 -0.24537,0.47827 v 1.04647 l -0.0602,0.22317 0.0602,0.24698 v 0.12512 l -0.053,0.45987 0.053,0.15274 v 0.5682 l 0.40245,0.77835 0.20203,0.39053 0.1365,0.39216 -2.21048,0.17224 -2.27386,0.17712 -4.29854,-0.04 -4.29854,-0.0395 -0.74152,-0.11375 -0.74152,-0.1132 0.42357,-1.01506 0.42412,-1.01451 -0.014,-0.19554 0.0195,-0.0439 -0.0655,-0.68519 0.0477,-0.25241 -0.0992,-0.36778 -0.004,-0.0542 -0.11592,-1.5995 -0.83956,-1.0443 -0.71444,-0.8894 -0.0747,-0.10562 -0.0178,-0.009 -0.032,-0.04 -0.97821,-0.54654 -0.0829,-0.0829 -0.13001,-0.0363 -1.09684,-0.61261 -1.88169,-0.15003 -1.88224,-0.1495 -2.05394,0.43658 -2.0534,0.43602 -1.69049,0.79947 -1.68996,0.79894 -1.35142,1.20138 -1.35087,1.20193 -1.56104,-0.81356 -1.5605,-0.81302 -2.06911,-1.37904 -1.28642,-0.85797 -1.11797,-0.85581 -1.90173,-1.8947 -2.20236,-2.19369 -0.0412,-0.0439 -1.255,-1.79394 -1.26097,-1.80262 -0.861223,-1.52529 -0.46853,-0.8298 -0.406778,-0.84552 -0.270826,-0.56224 -0.574152,-1.43375 -0.859056,-2.14602 -0.542194,-2.15252 -0.542735,-2.15252 -0.280035,-3.60524 -0.280032,-3.60523 -0.277325,-6.79447 -0.276784,-6.79448 -0.0022,-6.71431 -0.0012,-3.35715 v -3.15107 l 0.02005,-0.21178 1.062719,-0.28599 0.02608,-0.007 h 0.102908 l 0.128914,-0.0623 0.825476,-0.22262 0.945181,-0.63428 0.487486,-0.23615 0.196621,-0.22371 1.044302,-0.70089 0.587693,-1.15264 0.29899,-0.33961 0.17929,-0.59799 0.5514,-1.08221 v -1.53884 -1.53882 l -0.97822,-1.99816 -0.0282,-0.0715 -0.03088,-0.0493 -0.01245,-0.0249 -1.04972,-2.1444 -1.123385,-1.11417 -0.638605,-0.68411 -0.404615,-0.53407 -0.36399,-0.2887 -0.85635,-0.91648 -0.574693,-0.39052 -1.090344,-1.0806 -2.218603,-1.14071 -2.218604,-1.14072 -1.643369,-0.51132 -1.64337,-0.51186 -1.055136,-2.2511 -1.055135,-2.25165 -0.557901,-2.32747 -0.557361,-2.32802 -0.108328,-1.61412 -0.0017,-2.4071 -0.0017,-2.42984 0.210701,-1.37526 0.433865,-2.83392 0.932182,-2.48184 0.716604,-1.90716 0.515109,-0.99826 0.147329,-0.28491 1.009639,-1.60167 1.33246,-2.11459 0.360743,-0.45283 0.114285,-0.14354 0.980931,-1.11688 0.930016,-1.05893 0.135953,-0.1327 0.327158,-0.2692 1.051347,0.98363 0.08233,0.12567 0.321201,0.25187 0.329864,0.30873 0.01301,0.0125 0.839018,0.80977 0.09263,0.0617 0.900767,0.84226 1.438626,0.72907 0.120786,0.0612 0.497777,0.33041 0.404615,0.12729 0.414904,0.21015 1.53179,0.53787 1.531239,0.53785 2.63947,0.15546 0.49399,0.0293 0.7491,0.0764 0.16141,-0.0228 1.23551,0.0725 1.44512,-0.30982 1.44513,-0.30983 1.26205,-0.59365 1.26204,-0.5931 0.29737,-0.26758 0.0715,-0.0347 0.29195,-0.29196 0.65865,-0.59202 1.31946,-1.18621 0.72744,-1.34438 0.72798,-1.34492 0.071,-0.36453 0.0991,-0.19013 0.001,-0.32282 0.16683,-0.85581 0.33799,-1.73328 -0.33312,-1.69104 -0.33257,-1.69049 0.0888,-0.0834 0.0883,-0.0834 2.94062,-0.71932 2.94008,-0.71931 3.16107,-0.5357 3.16054,-0.53624 3.88256,-0.33581 z m 2.91842,12.21911 -0.68519,0.0525 -4.02935,0.004 -2.91137,0.41382 -2.91192,0.41381 -2.83663,0.68357 -2.83662,0.68357 -2.71043,1.0118 -0.0915,0.0342 -0.29845,0.0905 -0.2237,0.1045 -2.09619,0.7827 -1.38662,0.69331 -1.38663,0.69277 -2.35077,1.52637 -2.35131,1.52583 -1.80532,1.74196 -1.10172,0.99717 -0.18091,0.24104 -0.71931,0.69386 -1.30863,1.95536 -0.29141,0.43548 -0.28762,0.38241 -0.0525,0.12621 -0.67706,1.01126 -0.67652,2.06585 -0.23725,0.72527 -0.046,0.10942 -0.004,0.0417 -0.38944,1.18946 0.0135,3.09229 -0.13542,1.53721 0.15058,1.96781 0.0157,3.66374 0.47449,2.77162 0.47449,2.77163 0.56115,2.22023 0.56115,2.22023 1.10334,3.46657 1.1028,3.46656 0.67219,3.32791 0.67219,3.3279 0.44199,3.46657 0.44199,3.46657 0.23995,9.15173 0.23941,9.15175 0.44361,2.63459 0.44415,2.63459 0.5774,1.80262 0.5774,1.80261 1.11147,1.90499 1.11147,1.90445 1.96186,2.06477 1.08818,1.23171 0.28382,0.21233 0.62182,0.65486 1.68345,1.20139 1.68399,1.20137 2.19965,1.12826 2.20019,1.12772 2.49593,0.80111 2.49593,0.80164 1.80261,0.34016 1.80262,0.34069 1.94669,0.12783 0.27191,0.0374 0.22316,-0.005 0.19283,0.0125 -5.5e-4,5.5e-4 2.6346,0.17279 1.38662,-0.0639 1.38663,-0.0645 2.12653,-0.15274 2.12598,-0.15221 2.82633,-0.71281 2.82634,-0.71281 1.91744,-0.77998 1.9169,-0.78052 2.00466,-1.14722 2.00465,-1.14776 1.31351,-1.08493 0.47394,-0.31307 0.4902,-0.4826 1.73328,-1.43105 1.02751,-1.2875 0.0227,-0.0222 0.0277,-0.0406 0.30386,-0.38078 1.38176,-1.73058 0.96956,-1.94128 0.96901,-1.94127 0.42465,-1.66396 0.42466,-1.66395 0.43007,-2.77325 0.43062,-2.77325 0.24752,-9.42907 0.24754,-9.42906 0.55302,-3.60524 0.55358,-3.60523 0.58335,-2.67684 0.58282,-2.6763 1.09577,-3.39724 1.09575,-3.39669 0.68248,-3.0782 0.68248,-3.07821 0.32553,-2.35726 0.32554,-2.35727 -0.002,-1.84053 0.005,-0.0472 -0.005,-0.14733 -0.003,-2.26357 -0.005,-4.29854 -0.71444,-2.21861 -0.71443,-2.2186 -1.17918,-1.80262 -1.17971,-1.80261 -1.82212,-1.82645 -1.82157,-1.8259 -2.17907,-1.47058 -2.17851,-1.47004 -2.79926,-1.33355 -2.79924,-1.33355 -2.6346,-0.85364 -2.63459,-0.85364 -2.63459,-0.53515 -2.63459,-0.53516 -2.34968,-0.29031 -2.35023,-0.29033 -4.38467,0.004 z m -4.45184,1.70999 4.9989,0.005 4.99944,0.005 2.94983,0.3927 2.94929,0.3927 2.3199,0.55357 2.31935,0.55302 2.49593,0.88344 2.49593,0.88398 2.66275,1.33624 2.66277,1.33626 2.24893,1.69429 1.47762,1.11363 1.2133,1.22413 0.72473,0.73177 0.0585,0.0688 1.22521,1.44296 0.84227,1.38663 0.6906,1.13638 0.19229,0.36724 0.57415,1.68562 0.41057,1.20408 0.0178,0.0753 0.18579,0.78757 -0.005,4.17288 -0.005,4.43721 -0.43387,2.80087 -0.43386,2.80088 -0.61857,2.69363 -0.58281,2.53926 -0.0499,0.0498 -0.0807,0.0807 -0.61749,-0.15708 -0.71227,-0.18091 -3.18924,-0.66461 -3.18925,-0.6646 -3.61606,-0.55303 -3.61552,-0.55249 -4.28825,-0.40298 -4.28772,-0.40299 -5.26918,-0.18633 -5.26918,-0.18632 -6.37848,0.3147 -6.37849,0.3147 -3.88255,0.41978 -3.88256,0.41977 -3.3279,0.55791 -3.32791,0.55843 -2.49105,0.54057 -2.49106,0.54111 -0.4734,0.15004 -0.38835,0.12351 h -0.0856 l -0.013,-0.0205 -0.28383,-1.00585 -0.29682,-1.05351 -0.53516,-2.63459 -0.53515,-2.63459 -0.32878,-2.88862 -0.32012,-2.81822 -0.002,-0.24753 0.12783,-3.4514 0.12729,-3.45087 0.0753,-0.31632 0.0374,-0.15708 0.48045,-1.33733 0.43765,-1.2198 0.2367,-0.47504 0.15545,-0.31252 0.9089,-1.39476 0.83739,-1.28534 0.30495,-0.37752 0.32066,-0.39649 1.83132,-1.71542 1.69916,-1.59083 0.71715,-0.57956 1.94669,-1.16726 2.22023,-1.33192 2.55713,-1.10226 2.55714,-1.10225 2.30797,-0.66895 2.30852,-0.66894 2.03715,-0.41815 2.03769,-0.41816 2.34968,-0.29194 z m 10.86444,1.91853 -2.9742,1.81779 -2.96175,1.81019 h -0.0244 -5.6e-4 l -2.81333,-1.76523 -2.82526,-1.77337 -0.52648,0.13811 -0.52649,0.13758 v 0.38295 0.23075 l -0.006,0.0168 0.006,0.0162 v 0.11916 l 2.66817,6.66934 2.66818,6.66936 -0.10292,0.0926 -0.10293,0.0927 -3.7439,-0.77835 -3.74389,-0.77835 -4.57588,-0.71336 -4.57586,-0.7128 -4.29855,-0.32011 -4.29854,-0.32067 -2.07994,0.25025 -2.07994,0.25023 -0.072,0.51673 -0.18633,0.18579 0.10725,0.10725 -0.12621,0.20692 0.81681,0.78377 2.06857,2.05881 2.76296,2.74942 -2.75484,4.02501 -2.75483,4.02501 v 0.50483 0.50536 h 0.58552 0.10616 0.0872 l 0.0666,0.0412 0.065,-0.0412 h 0.26054 l 2.32964,-1.4072 2.33018,-1.40722 3.39345,-1.61683 3.39399,-1.61683 2.91191,-0.98796 2.91192,-0.98851 3.46657,-0.81573 3.46656,-0.81573 2.02903,-0.3304 2.02848,-0.33041 0.16087,0.16086 0.16142,0.16087 -2.67522,6.59569 -2.67521,6.59622 v 0.22425 l -0.0667,0.16466 0.0667,0.17387 v 0.0574 0.6202 h 0.56819 0.56766 l 2.8052,-1.65855 2.80576,-1.65853 0.8558,0.52811 0.85581,0.52757 1.93695,1.13097 1.93694,1.13043 h 0.45986 0.10671 0.3537 0.059 v -0.15438 l 0.10397,-0.27136 0.16359,-0.42575 -2.74238,-6.85404 -2.74293,-6.85406 0.49561,-0.084 0.49508,-0.0845 4.19725,0.84714 4.19726,0.8466 4.08676,1.34763 4.08675,1.34763 2.91192,1.37633 2.91191,1.37634 2.60697,1.57458 2.60696,1.57458 h 0.48316 0.0525 0.43116 0.059 v -0.15382 l 0.10725,-0.28004 0.16683,-0.43441 -2.84042,-4.15934 -2.83988,-4.15988 2.84151,-2.64163 2.84204,-2.64218 v -0.4994 -0.49995 l -0.4669,-0.17927 -0.17387,-0.0667 -0.19933,-0.16574 -0.6489,0.0178 -1.95915,-0.12621 -2.51436,-0.16195 -3.46655,0.31795 -3.46657,0.31849 -3.7439,0.55519 -3.74388,0.55519 -4.71454,0.93489 -4.71454,0.9349 -0.0335,-0.0412 -0.0335,-0.0412 2.73751,-6.77552 2.73751,-6.77551 v -0.33582 -0.33583 l -0.46794,-0.17982 z m -1.65366,2.88646 0.0342,0.0342 0.004,0.004 -0.42682,1.07301 -0.45933,1.15536 -1.70619,4.26224 -1.68616,4.21243 -0.0228,0.0412 -2.0924,-5.22422 -2.09511,-5.23289 0.0867,-0.0899 0.0867,-0.0894 1.78908,1.12933 1.78907,1.12989 h 0.39866 0.0125 0.38619 l 1.98623,-1.22467 z m -32.54619,9.89326 h 1.36496 l 2.71096,0.085 1.17647,0.0368 2.88158,0.30278 4.04289,0.42466 4.89328,0.8336 4.89327,0.8336 0.94789,0.20474 0.94735,0.2042 -2.56634,0.49183 -2.56634,0.49236 -3.26021,0.93813 -3.26074,0.93868 -2.82687,1.12014 -2.82634,1.12068 -2.88646,1.48087 -2.88646,1.48034 0.19283,-0.30278 0.19229,-0.30279 1.76361,-2.59072 1.76308,-2.59071 -0.33745,-0.33908 v -0.0699 l -0.71715,-0.65539 -1.70945,-1.73437 -2.29281,-2.32531 z m 52.70212,0.006 1.29075,0.003 2.77488,0.007 v 0.13975 0.15599 l -2.35727,2.23107 -2.35726,2.2316 v 0.17875 0.16844 0.009 0.1587 0.19878 l 1.81832,2.66331 1.81887,2.66276 -0.22425,-0.04 -0.2237,-0.04 -3.43569,-1.74466 -3.4357,-1.74412 -4.28175,-1.42509 -4.28121,-1.42562 -3.46169,-0.75669 -3.46116,-0.75723 3.96815,-0.74477 3.96813,-0.74531 2.77326,-0.40244 2.77325,-0.40245 3.18924,-0.29249 z m -24.36943,5.3044 2.10485,5.26213 2.14928,5.37373 -0.0904,0.0948 -0.0905,0.0942 -1.90933,-1.13421 -1.90931,-1.13477 h -0.12134 l -0.0877,-0.0537 -0.10616,0.0537 h -0.0926 -0.40733 l -0.54706,0.37319 -0.54708,0.37266 -1.3173,0.76265 -1.31729,0.76318 v -0.16467 -0.16412 l 2.12273,-5.30494 2.00899,-5.02164 0.007,-0.008 z m 8.88362,16.76193 3.74389,0.35315 3.7439,0.35317 4.02122,0.55302 4.02121,0.55303 4.1588,0.8363 4.1588,0.83685 0.10887,0.10888 0.10887,0.10887 -0.86663,2.98937 -0.86665,2.98884 -0.43657,2.07993 -0.43657,2.07995 -0.55303,3.60522 -0.55302,3.60524 -0.12567,4.78819 -0.11916,1.59029 -5.4e-4,2.95579 -0.24321,9.24652 -0.31361,2.21861 -0.31362,2.21859 -0.42302,1.94129 -0.4225,1.94127 -0.97443,2.00304 -0.97496,2.00302 -1.56538,1.85948 -0.38294,0.45499 -0.89373,0.88994 -1.2653,1.25934 -0.96467,0.73556 -1.94129,1.47924 -2.10215,1.09522 -2.1016,1.09468 -2.47426,0.82493 -2.47373,0.8244 -2.35727,0.41273 -2.35725,0.41275 -2.6346,0.12079 -2.08536,0.0959 -0.65431,0.0168 -2.72992,-0.21016 -2.83446,-0.21829 -2.43472,-0.60286 -2.43418,-0.60285 -2.07995,-0.84336 -1.91853,-0.7778 -0.25945,-0.12296 -2.09077,-1.22034 -2.03552,-1.18784 -0.21125,-0.14354 -1.97432,-1.83782 -1.95807,-1.8232 -0.0867,-0.0877 -1.2225,-1.83836 -1.23497,-1.85787 -0.60827,-1.51987 -0.60882,-1.51987 -0.5319,-2.91138 -0.5319,-2.91246 -0.25403,-9.28985 -0.25404,-9.2904 -0.43874,-3.46657 -0.43873,-3.46657 -0.67382,-3.32791 -0.67381,-3.3279 -0.83144,-2.76079 -0.83143,-2.7608 0.0585,-0.0574 0.059,-0.058 3.46657,-0.73123 3.46657,-0.73177 3.60523,-0.53894 3.60523,-0.53895 4.99185,-0.45824 4.99186,-0.45769 8.87441,-0.0168 z m -10.53837,2.2381 -1.1093,0.57632 -1.1093,0.57686 -0.38783,0.40841 -0.15815,0.0829 -0.14896,0.24103 -0.0525,0.0552 -0.74802,0.7881 -0.46528,1.1093 -0.12296,0.29303 -0.078,0.12621 -0.007,0.0775 -0.25674,0.61261 0.007,0.74639 -0.004,0.013 0.005,0.0347 0.005,0.59257 0.005,0.49399 -0.006,0.065 0.007,0.0265 0.007,0.8011 0.299,0.7816 0.29899,0.78161 0.0379,0.0493 0.0135,0.0515 0.0975,0.0948 0.56711,0.7426 0.71552,0.93814 0.9311,0.4642 0.28924,0.28003 0.75831,0.24157 0.85797,0.42791 h 1.41642 1.41642 l 0.95494,-0.47557 0.67923,-0.20204 0.27461,-0.27353 0.92839,-0.46257 0.65595,-0.88776 0.6359,-0.86015 0.10072,-0.10073 0.079,-0.29466 0.17767,-0.40786 0.3369,-0.77565 v -0.72526 l 0.058,-0.21504 -0.0428,-0.44741 0.0439,-0.23507 -0.059,-0.24591 v -1.17376 l -0.18741,-0.44686 -0.008,-0.0867 -0.0867,-0.14029 -0.0915,-0.21829 -0.37374,-0.89264 -0.77023,-0.91322 -0.0607,-0.072 -0.2329,-0.37644 -0.15113,-0.0791 -0.32553,-0.3862 -0.88181,-0.4539 -0.0195,-0.0205 -0.0422,-0.0114 -0.2004,-0.10345 -1.14397,-0.58986 h -1.66396 z m 0.2952,1.63958 1.35738,0.007 1.398,0.007 0.89373,0.47124 0.7621,0.40136 0.37212,0.42357 0.4604,0.67815 0.7009,1.03184 v 1.49279 1.49225 l -0.58715,1.04485 -0.58119,1.0351 -0.0303,0.0238 -1.02101,0.57359 -1.04484,0.58716 -1.34871,-0.001 -1.34926,-0.001 -0.85635,-0.52216 -0.85689,-0.52215 -0.59799,-0.76102 -0.59852,-0.76102 -0.26757,-1.00368 -0.26759,-1.00368 0.24808,-1.08763 0.24808,-1.08818 0.53299,-0.71444 0.25186,-0.338 0.38404,-0.43764 0.8271,-0.48424 0.82818,-0.48478 z m 19.3635,11.14122 -0.24213,0.0704 h -0.49507 l -1.14125,0.33907 -1.14126,0.33907 -1.25609,1.25555 -1.25555,1.25555 -0.33907,1.1418 -0.33853,1.14126 0.001,0.49236 -0.0672,0.23182 0.0688,0.30712 v 0.046 l 0.003,1.0768 0.4772,1.02426 0.0948,0.42411 0.28057,0.38296 0.46907,1.00692 0.61099,0.46582 0.0173,0.0238 0.0569,0.033 0.3147,0.23995 0.99989,0.76265 1.03996,0.37157 h 5.5e-4 l 0.0287,0.0105 0.17929,0.10398 h 0.11267 l 0.71931,0.25675 0.85148,0.0125 0.85202,0.012 1.28262,-0.43658 0.065,-0.003 0.0628,-0.0407 1.16456,-0.39649 0.96522,-0.96522 0.15924,-0.10178 0.11212,-0.16953 0.99068,-0.99068 0.30495,-0.96686 0.0185,-0.0282 0.005,-0.0455 0.13108,-0.41653 0.0862,-0.27299 0.008,-0.019 v -0.009 l 0.36453,-1.15642 -0.19229,-1.28154 -0.19228,-1.28156 -0.52812,-0.79027 -0.0173,-0.0634 -0.10562,-0.12024 -0.23454,-0.35099 -0.3342,-0.49994 -0.20908,-0.38458 -0.0855,-0.0563 -0.25619,-0.38402 -1.37851,-0.69819 -0.4279,-0.28329 -0.24158,-0.0558 -0.96359,-0.48802 h -1.09685 -0.0547 z m -35.97702,0.004 -0.31849,0.0715 -0.77023,-0.005 -1.14126,0.33907 -1.1418,0.33907 -0.76969,0.76969 -0.69873,0.47502 -0.36182,0.58553 -0.68085,0.68086 -0.33908,1.1418 -0.33907,1.14126 v 1.09197 1.09196 l 0.49182,0.98635 0.0959,0.44794 0.30386,0.35533 0.55249,1.10822 0.94139,0.71823 0.94139,0.71768 1.04051,0.38783 5.5e-4,5.6e-4 1.04052,0.38782 1.49441,-0.12675 1.49496,-0.12729 1.27125,-0.78594 0.17062,-0.10562 0.005,-0.002 0.003,-0.003 1.09198,-0.67489 0.83956,-1.35739 0.83901,-1.35791 -0.0105,-1.82429 -0.0108,-1.82428 -0.58661,-1.10929 -0.58661,-1.10931 -0.65106,-0.60665 -0.65108,-0.60665 -0.33636,-0.15274 -0.1782,-0.17279 -0.56605,-0.16467 -0.16737,-0.0759 -1.24795,-0.56549 -0.80814,-0.005 z m 37.0614,1.67804 0.19878,0.0537 0.0439,0.012 0.98527,0.50264 0.78485,0.40083 0.24916,0.21882 0.26757,0.23508 0.41058,0.66352 0.58173,0.94194 0.17224,0.85959 0.12241,0.61316 -0.0807,0.84118 -0.019,0.19932 -0.0363,0.19229 -0.1847,0.98635 -0.88344,1.00639 -0.88343,1.00584 -0.89643,0.37482 -0.89102,0.37158 -0.89751,-0.008 -1.01885,-0.009 -1.18459,-0.62453 -1.07626,-0.56765 -0.3147,-0.37428 -0.45065,-0.79134 -0.5644,-0.99285 -0.0552,-0.2042 -0.004,-1.09739 -0.004,-1.15101 0.0162,-0.0595 0.0184,-0.0693 0.42032,-0.88505 0.30603,-0.64457 0.5931,-0.59311 0.25188,-0.25187 0.25565,-0.19498 0.8856,-0.67599 0.24104,-0.065 1.28208,-0.10616 z m -38.38628,0.0617 h 1.14234 1.14342 l 0.2015,0.0542 1.01234,0.56656 0.67111,0.37537 0.13054,0.11482 0.43441,0.38132 0.49723,0.98527 0.62398,1.23605 v 0.71227 l -0.0563,0.67707 -0.072,0.86664 -0.51024,0.96576 -0.46852,0.8856 -0.29629,0.38837 -1.08113,0.57198 -1.20301,0.63644 -1.06868,-0.0152 -0.99284,-0.0146 -1.12122,-0.55519 -0.96198,-0.47611 -0.45932,-0.51241 -0.45065,-0.76914 -0.60556,-1.03402 -0.0796,-0.34719 0.003,-1.01289 0.004,-1.10605 0.0287,-0.10724 0.0303,-0.11375 0.56656,-0.99989 0.37753,-0.66678 0.34233,-0.34231 0.34232,-0.34233 0.66677,-0.37753 1.00747,-0.5709 0.1755,-0.0472 z m 4.0548,20.3742 -1.80261,0.0105 -1.80262,0.0105 -1.1093,0.5866 -1.1093,0.58716 -0.36453,0.39107 -0.0276,0.0152 -0.0336,0.0504 -0.18092,0.19445 -0.60664,0.65052 -0.49724,1.09575 -0.085,0.12893 -0.026,0.11699 -0.52378,1.15426 -0.006,1.07735 -10e-4,0.13541 -0.008,0.0352 0.008,0.033 -0.005,0.87369 0.33908,1.14125 0.33907,1.14126 0.68194,0.68411 0.34286,0.55411 0.72528,0.51619 0.76102,0.76318 0.97063,0.30767 5.6e-4,-5.5e-4 0.97064,0.30765 0.8271,0.0184 0.004,0.001 0.27732,0.012 0.27733,0.0119 0.0493,-0.0113 1.09955,0.0249 1.00964,-0.51131 0.22315,-0.0515 0.39704,-0.2627 1.38175,-0.69981 0.25674,-0.38403 0.084,-0.0558 0.20529,-0.37753 0.18632,-0.27841 0.20204,-0.17766 0.11158,-0.29141 0.70577,-1.05622 0.1885,-1.11634 0.18849,-1.11581 -0.18362,-1.08817 -0.18416,-1.08764 -0.78972,-1.24525 -0.78974,-1.24526 -1.33842,-0.78702 z m 34.15436,0 -1.82428,0.0105 -1.82429,0.0105 -1.1093,0.5866 -1.10929,0.58716 -0.60666,0.65107 -0.60665,0.65052 -0.15328,0.33745 -0.17225,0.17765 -0.16412,0.56495 -0.0764,0.16792 -0.56603,1.24795 -0.004,0.80815 -0.0785,0.26974 0.0747,0.32445 -0.004,0.75235 0.33907,1.14126 0.33907,1.14126 0.68248,0.68464 0.34233,0.55358 0.72527,0.51619 0.76102,0.76318 0.97064,0.32229 5.5e-4,-5.6e-4 0.97064,0.32228 0.74261,-0.0335 0.0889,0.0238 0.19446,0.019 0.19444,0.0184 0.49236,-0.10562 1.43376,-0.0655 0.59852,-0.36995 0.2145,-0.046 0.36452,-0.31254 0.15383,-0.0948 0.42195,-0.26107 0.11483,-0.052 0.033,-0.0395 0.76156,-0.47069 0.83902,-1.35738 0.83956,-1.35737 v -1.84594 -1.84649 l -0.83956,-1.35739 -0.83902,-1.35737 -1.35737,-0.83956 z m -36.94928,1.52529 h 0.86665 0.14028 1.00693 l 1.20788,0.6386 0.88126,0.46637 0.24916,0.24916 0.24863,0.24861 0.4669,0.88235 0.50319,0.95114 0.0558,0.4187 0.0797,0.59366 v 0.26595 0.60664 l -0.11537,0.61586 -0.005,0.0287 -0.52378,0.99339 -0.52215,0.98851 -0.26378,0.31362 -0.94735,0.53948 -1.04268,0.59365 -0.15546,0.026 h -1.13855 -1.15425 l -0.24862,-0.0877 -0.94843,-0.53731 -0.78973,-0.4474 -0.37807,-0.41003 -0.17549,-0.19066 -0.38566,-0.68086 -0.57144,-1.00963 -0.0536,-0.19824 v -1.14396 -1.14235 l 0.0547,-0.20312 0.56602,-1.0118 0.39541,-0.7074 0.42195,-0.50157 1.03943,-0.52432 z m 34.11102,0 h 0.86665 0.14029 1.00692 l 1.20789,0.6386 0.88126,0.46637 0.24916,0.24916 0.24862,0.24861 0.46691,0.88235 0.50318,0.95114 0.0558,0.4187 0.0797,0.59366 v 0.22207 0.65052 l -0.10021,0.53461 -0.48098,0.99393 -0.45824,0.94735 -5.5e-4,5.5e-4 -0.30116,0.35803 -5.5e-4,5.6e-4 -0.99719,0.5839 -1.13258,0.66243 -0.15113,0.0255 -1.11634,-0.004 -1.12934,-0.003 -0.24917,-0.0883 -0.94842,-0.53732 -0.78973,-0.4474 -0.37807,-0.41003 -0.1755,-0.19066 -0.38565,-0.68086 -0.57145,-1.00963 -0.0537,-0.19825 v -1.14398 -1.14235 l 0.0547,-0.20312 0.56603,-1.0118 0.3954,-0.70741 0.42195,-0.50156 1.03943,-0.52432 z m -15.99496,8.80237 -0.34556,0.0775 -1.13965,-0.005 -0.94788,0.47232 -0.63157,0.14137 -0.34557,0.34557 -0.91214,0.45445 -0.71552,0.93813 -0.71553,0.93815 -0.29898,0.7816 -0.29954,0.7816 -0.0125,1.38664 -0.013,1.38662 0.46528,1.10931 0.18904,0.45066 0.0113,0.0422 0.0114,0.012 0.25349,0.60448 0.74748,0.78756 0.3797,0.39974 0.2042,0.26758 0.0942,0.0465 0.0699,0.0737 0.83036,0.43332 0.83035,0.43332 0.49831,0.1625 0.0607,0.0303 h 0.0308 l 0.10509,0.0342 0.69494,0.22695 1.29833,-0.11483 1.29833,-0.11484 1.05894,-0.54489 1.05892,-0.54436 0.34233,-0.36074 0.19445,-0.10671 0.17278,-0.28004 0.0385,-0.0407 0.74803,-0.7881 0.4306,-1.03077 0.14842,-0.35531 0.0877,-0.14246 0.008,-0.0882 0.18579,-0.44524 v -1.1743 l 0.0515,-0.2145 -0.039,-0.23074 0.0465,-0.48262 -0.059,-0.21882 v -0.76968 l -0.43983,-0.86179 -0.15274,-0.5682 -0.28004,-0.28002 -0.28383,-0.55628 -0.7388,-0.69602 -0.16954,-0.15978 -0.0152,-0.0222 -0.019,-0.009 -0.5357,-0.50427 -0.34448,-0.15871 -0.23996,-0.23993 -0.58769,-0.14083 -1.04647,-0.48208 -0.98201,-0.004 z m -1.34438,1.736 h 1.35955 1.33138 l 0.0862,0.039 0.87748,0.59203 0.93596,0.63048 0.63049,0.93543 0.59149,0.87802 0.039,0.0855 v 1.554 1.49821 l -0.10073,0.23616 -0.52541,0.79027 -0.42303,0.63644 -0.23399,0.21883 -0.23833,0.22262 -0.96576,0.48803 -1.19543,0.60339 -0.0617,0.0135 -0.025,0.005 -0.89427,-0.009 -0.80327,-0.008 -1.18296,-0.60449 -1.08493,-0.55411 -0.50048,-0.56981 -0.156,-0.21449 -0.51998,-0.71498 -0.24808,-1.08764 -0.24808,-1.08817 0.27409,-1.02698 0.27352,-1.02751 0.71931,-0.85472 0.71878,-0.85419 0.78539,-0.40623 z"
       style="fill:#189ca8;fill-opacity:1;stroke-width:0.277325"
       id="path887" />
  </g>
</svg>
